<svg version="1" xmlns="http://www.w3.org/2000/svg" viewBox="0 0 1000 1000">
<g fill="#3ab9aa">
<path d="M453 12A496 496 0 0 0 97 221l-11 17h51c53 0 60 1 65 8 4 5 3 15-2 20l-5 5H66l-10 22-11 25c0 1 29 2 97 2 107 0 108 0 111 11 2 8 1 13-5 18l-5 4H32l-4 14-4 17c0 2 23 2 78 2 74 0 78 0 81 4 9 8 7 21-4 27-3 2-24 2-84 2H16l-1 6-5 50v8h47v34H10v8l5 49 1 7h130l130 1 5 4c7 7 7 17 1 23l-5 5H150c-90 0-126 1-126 2l4 17 4 14h196l5 5c7 7 7 17-1 23l-6 5h-91c-63 0-90 1-90 2l11 25 10 22h97c95 0 98 0 102 4 9 8 7 21-4 26-4 2-26 3-90 3H86l10 15 10 15 119 1 118 1 5 5c5 7 6 12 2 18-5 9-2 9-111 9-59 0-102 1-102 2s10 12 23 24l24 23h77c58 0 78 0 82 2 11 6 12 19 3 27-4 4-6 4-59 4-48 0-55 0-53 3l25 15a513 513 0 0 0 308 59 487 487 0 0 0 190-69l11-7-72-1-73-1-5-5c-6-7-6-14 0-21l5-5 97-1 96-1 23-22 24-24c0-1-32-2-78-2-83 0-83 0-87-9-4-6-3-11 2-17l5-6 94-1 94-1 10-15 11-15H780c-137 0-143 0-147-8-4-7-2-17 3-21s7-4 151-4h146l9-20 11-24 2-5H854l-100-1-4-4c-7-6-6-17 1-23l5-5h211l5-15 4-17-78-1h-78l-5-5c-6-6-6-14 0-22l5-5 81-1h82l2-15 4-32 1-17-25-1h-25l-1-16v-16h51l-1-18-4-32-2-15h-70c-76 0-81 0-85-10-3-8-3-10 3-17l5-6h70l70-1-4-17-5-15H771l-5-5c-5-5-6-15-2-20 6-8 9-8 101-8h90l-2-4c0-3-5-14-11-25l-9-20h-72c-71 0-74 0-78-4-9-8-7-21 4-26 3-2 21-3 66-3h61l-7-9A496 496 0 0 0 453 12zm28 106l-1 41-8 2-21 10-13 7-28-28-28-29c0-3 24-19 37-26 14-7 29-12 45-16 19-4 17-8 17 39zm66-35c24 6 50 19 67 34l8 7-29 29-29 28-7-5c-8-6-23-13-34-16l-9-2V76l10 1 23 6zM412 212l-7 18-2 8h-82l1-11c3-22 14-50 30-73l6-9 29 29 29 29-4 9zm248-35c9 18 18 46 18 57v4h-81l-6-16-5-16 29-28 29-29 3 4 13 24zm-133 19c13 6 25 18 32 32 4 9 5 14 5 28s-1 18-6 28a65 65 0 0 1-117-1c-5-9-6-13-6-28 0-17 1-19 7-30 17-31 53-44 85-29zm-121 86l11 25 8 14-28 27c-15 16-28 28-29 28a172 172 0 0 1-46-99v-6h81l3 11zm271 0c-3 25-21 66-38 86l-5 6-29-28-29-29 7-11 10-23 4-12h81l-1 11zm-96 86l29 29-10 7c-25 16-59 29-79 29h-7v-81l8-2c4 0 11-3 17-6l11-4c2-1 15 12 31 28zm-112-20l12 4v81h-5c-16 0-55-15-74-27l-9-7 29-29c19-18 30-28 32-28l15 6zm421 152v17H105v-34h785v17z"/>
<path d="M493 241c-15 7-10 30 6 30 15 0 22-16 13-26-5-6-13-8-19-4z"/>
</g></svg>